I thought I would upload this as there aren\'t any 720P versions around this size. This won\'t be for everyone, but hopefully some people will appreciate it.



Detailed Analysis of:   Casino Royale 720P.avi

General  Complete name : G:\Downloads\Casino Royale 720P.avi 
Format : AVI 
Format/Info : Audio Video Interleave 
Format profile : OpenDML 
File size : 1.83 GiB 
Duration : 2h 24mn 
Overall bit rate : 1 810 Kbps 
Director : created.with.SUPER(C).v2010.bld.38 
Writing application : SUPER(C) - by eRightSoft 

Video  ID : 0 
Format : MPEG-4 Visual 
Format profile : Advanced Simple@L5 
Format settings, BVOP : Yes 
Format settings, QPel : No 
Format settings, GMC : No warppoints 
Format settings, Matrix : Default (MPEG) 
Codec ID : XVID 
Codec ID/Hint : XviD 
Duration : 2h 24mn 
Bit rate : 1 478 Kbps 
Width : 720 pixels 
Height : 306 pixels 
Display aspect ratio : 2.35:1 
Frame rate : 23.976 fps 
Resolution : 8 bits 
Colorimetry : 4:2:0 
Scan type : Progressive 
Bits/(Pixel*Frame) : 0.280 
Stream size : 1.49 GiB (82%) 
Writing library : XviD 1.1.2 (UTC 2006-11-01) 

Audio  ID : 1 
Format : MPEG Audio 
Format version : Version 1 
Format profile : Layer 3 
Codec ID : 55 
Codec ID/Hint : MP3 
Duration : 2h 24mn 
Bit rate mode : Constant 
Bit rate : 320 Kbps 
Channel(s) : 2 channels 
Sampling rate : 48.0 KHz 
Video delay : 42ms 
Stream size : 330 MiB (18%) 
Alignment : Aligned on interleaves 
Interleave, duration : 24 ms (0.58 video frame) 
Interleave, preload duration : 504 ms 
Writing library : LAME3.97 
